<svg width="76" height="85" viewBox="0 0 76 85" fill="none" xmlns="http://www.w3.org/2000/svg">
<path d="M16.2857 21.25C16.2857 26.8859 18.5735 32.2909 22.6457 36.276C26.7179 40.2612 32.241 42.5 38 42.5C43.759 42.5 49.2821 40.2612 53.3543 36.276C57.4265 32.2909 59.7143 26.8859 59.7143 21.25C59.7143 15.6141 57.4265 10.2091 53.3543 6.22398C49.2821 2.23883 43.759 0 38 0C32.241 0 26.7179 2.23883 22.6457 6.22398C18.5735 10.2091 16.2857 15.6141 16.2857 21.25ZM32.317 54.4863L35.4723 59.6328L29.8232 80.2021L23.7161 55.8145C23.3768 54.4697 22.0536 53.5898 20.6795 53.9385C8.80446 56.8437 0 67.3691 0 79.9033C0 82.7256 2.34107 85 5.20804 85H27.55C27.55 85 27.55 85 27.567 85H28.5H47.5H48.433C48.433 85 48.433 85 48.45 85H70.792C73.6759 85 76 82.709 76 79.9033C76 67.3691 67.1955 56.8437 55.3205 53.9385C53.9464 53.6064 52.6232 54.4863 52.2839 55.8145L46.1768 80.2021L40.5277 59.6328L43.683 54.4863C44.7687 52.71 43.4625 50.4688 41.3589 50.4688H38H34.658C32.5545 50.4688 31.2482 52.7266 32.3339 54.4863H32.317Z" fill="white"/>
</svg>
