<svg width="24" height="25" viewBox="0 0 24 25" fill="none" xmlns="http://www.w3.org/2000/svg">
<path d="M17.0017 1.61902L14.733 3.88777L20.8267 9.98152L23.0955 7.71277C24.2674 6.54089 24.2674 4.64246 23.0955 3.47058L21.2486 1.61902C20.0767 0.447144 18.1783 0.447144 17.0064 1.61902H17.0017ZM13.6736 4.94714L2.74704 15.8784C2.25954 16.3659 1.90329 16.9706 1.70641 17.6315L0.0470384 23.2706C-0.0701491 23.669 0.0376634 24.0956 0.328288 24.3862C0.618913 24.6768 1.04548 24.7846 1.43923 24.6721L7.07829 23.0128C7.73923 22.8159 8.34391 22.4596 8.83141 21.9721L19.7674 11.0409L13.6736 4.94714Z" fill="black"/>
</svg>
