<svg width="24" height="28" viewBox="0 0 24 28" fill="none" xmlns="http://www.w3.org/2000/svg">
<path d="M7.24286 1.23398L6.85714 2.00005H1.71429C0.766071 2.00005 0 2.76612 0 3.71434C0 4.66255 0.766071 5.42862 1.71429 5.42862H22.2857C23.2339 5.42862 24 4.66255 24 3.71434C24 2.76612 23.2339 2.00005 22.2857 2.00005H17.1429L16.7571 1.23398C16.4679 0.650052 15.8732 0.285767 15.225 0.285767H8.775C8.12679 0.285767 7.53214 0.650052 7.24286 1.23398ZM22.2857 7.14291H1.71429L2.85 25.3036C2.93571 26.659 4.06071 27.7143 5.41607 27.7143H18.5839C19.9393 27.7143 21.0643 26.659 21.15 25.3036L22.2857 7.14291Z" fill="black"/>
</svg>
