<?xml version="1.0" encoding="UTF-8"?>
<svg id="Layer_2" data-name="Layer 2" xmlns="http://www.w3.org/2000/svg" viewBox="0 0 26.1 26">
  <defs>
    <style>
      .cls-1 {
        fill: #ea3700;
      }
    </style>
  </defs>
  <g id="gnb_2depth">
    <path class="cls-1" d="M26.1,13.05C26.1,5.84,20.26,0,13.05,0S0,5.84,0,13.05c0,6.12,4.22,11.25,9.9,12.67v-8.68h-2.69v-3.99h2.69v-1.72c0-4.44,2.01-6.5,6.37-6.5,.83,0,2.25,.16,2.84,.33v3.61c-.31-.03-.84-.05-1.51-.05-2.14,0-2.97,.81-2.97,2.92v1.42h4.26l-.73,3.99h-3.53v8.97c6.46-.78,11.47-6.28,11.47-12.95h0Z"/>
  </g>
</svg>