<?xml version="1.0" encoding="UTF-8"?>
<svg id="Layer_2" data-name="Layer 2" xmlns="http://www.w3.org/2000/svg" viewBox="0 0 26.01 26">
  <defs>
    <style>
      .cls-1 {
        fill: #ea3700;
      }
    </style>
  </defs>
  <g id="gnb_2depth">
    <path class="cls-1" d="M13.01,6.33c-3.69,0-6.67,2.98-6.67,6.67s2.98,6.67,6.67,6.67,6.67-2.98,6.67-6.67-2.98-6.67-6.67-6.67Zm0,11c-2.38,0-4.33-1.94-4.33-4.33s1.94-4.33,4.33-4.33,4.33,1.94,4.33,4.33-1.95,4.33-4.33,4.33h0ZM21.5,6.06c0,.86-.7,1.55-1.55,1.55s-1.55-.7-1.55-1.55,.7-1.55,1.55-1.55,1.55,.7,1.55,1.55Zm4.42,1.58c-.1-2.08-.57-3.93-2.1-5.45C22.29,.67,20.45,.2,18.37,.09,16.22-.03,9.79-.03,7.64,.09c-2.08,.1-3.92,.57-5.45,2.09S.2,5.55,.09,7.63C-.03,9.78-.03,16.21,.09,18.36c.1,2.08,.57,3.93,2.1,5.45,1.53,1.52,3.36,2,5.45,2.1,2.15,.12,8.58,.12,10.73,0,2.08-.1,3.93-.57,5.45-2.1,1.52-1.52,2-3.36,2.1-5.45,.12-2.15,.12-8.57,0-10.72h0Zm-2.77,13.02c-.45,1.14-1.33,2.01-2.47,2.47-1.71,.68-5.77,.52-7.66,.52s-5.96,.15-7.66-.52c-1.14-.45-2.01-1.33-2.47-2.47-.68-1.71-.52-5.77-.52-7.66s-.15-5.96,.52-7.66c.45-1.14,1.33-2.01,2.47-2.47,1.71-.68,5.77-.52,7.66-.52s5.96-.15,7.66,.52c1.14,.45,2.01,1.33,2.47,2.47,.68,1.71,.52,5.77,.52,7.66s.16,5.96-.52,7.66Z"/>
  </g>
</svg>