<?xml version="1.0" encoding="UTF-8"?>
<svg id="Layer_2" data-name="Layer 2" xmlns="http://www.w3.org/2000/svg" viewBox="0 0 47.94 71.41">
  <defs>
    <style>
      .cls-1 {
        fill: #fff;
      }

      .cls-2 {
        fill: #020202;
      }

      .cls-3 {
        fill: #e93700;
      }

      .cls-4 {
        fill: #231f20;
      }
    </style>
  </defs>
  <g id="design">
    <g>
      <g>
        <g>
          <path class="cls-3" d="M7.72,36.36c-2.81,0-3.42-.16-3.74-.48-.18-.17-.28-.4-.28-.65,0-.9,.53-1.18,5.79-1.87,3.05-.4,7.17-.84,11.15-1.27,2.85-.31,6.01-.64,8.75-.97-3.21,.07-7.04,.2-10.48,.32-14.97,.52-17.93,.5-18.62-.17-.18-.18-.28-.41-.28-.66,0-.92,1.09-1.1,2.15-1.28,.89-.15,2.16-.3,3.89-.47,3.18-.31,7.49-.63,11.66-.94,1.21-.09,2.48-.18,3.75-.28-.86,.03-1.71,.06-2.54,.09-14.1,.49-15.79,.4-16.4-.18-.18-.17-.28-.41-.28-.65s.1-.47,.27-.64c.2-.19,.51-.33,1.35-.43,.15-.21,.4-.34,.67-.34,.2,0,.38,.07,.52,.18,.11,.02,.25,.04,.43,.05,1.44-.05,3.61-.06,6.91-.02,2.1-.06,4.37-.14,6.46-.21,12.92-.45,14.36-.37,14.94,.19,.05,.05,.1,.1,.13,.16,.82,.08,1.13,.22,1.33,.41,.18,.17,.28,.41,.28,.65,0,.92-1.09,1.1-2.15,1.28-.89,.15-2.16,.3-3.89,.47-3.18,.31-7.49,.63-11.66,.94-1.74,.13-3.58,.27-5.38,.41,2.13-.06,4.34-.14,6.41-.21,14.97-.52,17.93-.5,18.62,.17,.18,.18,.28,.41,.28,.66,0,.9-.53,1.18-5.79,1.87-3.05,.4-7.17,.84-11.15,1.27-2.46,.26-5.14,.55-7.59,.83,1.86-.05,3.81-.12,5.63-.19,12.92-.45,14.36-.37,14.94,.19,.18,.17,.28,.4,.28,.65,0,.46-.37,.83-.83,.83-.2,0-.38-.07-.52-.18-1.28-.26-8.2-.02-13.8,.18-5.6,.2-9.04,.29-11.19,.29Zm24.68-1.12h0s0,0,0,0Zm0,0h0s0,0,0,0Zm0,0h0s0,0,0,0Zm0,0h0s0,0,0,0Zm0,0h0s0,0,0,0Z"/>
          <path class="cls-3" d="M7.72,48.56c-2.81,0-3.42-.16-3.74-.48-.18-.17-.28-.4-.28-.65,0-.91,.53-1.18,5.79-1.82,3.05-.37,7.17-.78,11.15-1.17,2.58-.25,5.41-.53,7.96-.81-3.04,.07-6.53,.19-9.69,.3-14.97,.52-17.93,.5-18.62-.17-.18-.18-.28-.41-.28-.66,0-.78,.75-1.01,1.62-1.14-.28-.07-.45-.17-.56-.27-.18-.18-.28-.41-.28-.66,0-.53,.35-.8,.83-.96-.12-.16-.18-.34-.18-.54,0-.24,.1-.47,.27-.65,.21-.21,.62-.36,1.57-.46,.05-.11,.12-.21,.2-.3,.11-.11,.27-.21,.55-.28,.2-.15,.5-.2,.75-.12,1.47-.15,4.63-.14,11.87,.04,.75-.03,1.49-.05,2.2-.08,12.85-.45,14.35-.37,14.93,.18,.25,.07,.39,.16,.5,.26,.1,.09,.17,.2,.21,.32,.93,.08,1.34,.22,1.56,.43,.18,.18,.28,.41,.28,.65s-.07,.42-.19,.57c.28,.07,.45,.17,.56,.27,.18,.18,.28,.41,.28,.66,0,.55-.38,.83-.91,.99,.81,.09,1.2,.23,1.4,.42,.18,.18,.28,.41,.28,.66,0,.91-.53,1.18-5.79,1.82-3.05,.37-7.17,.78-11.15,1.17-2.11,.21-4.39,.43-6.54,.66,1.53-.05,3.11-.1,4.58-.15,12.92-.45,14.36-.37,14.94,.19,.18,.17,.28,.4,.28,.65,0,.46-.37,.83-.83,.83-.2,0-.38-.07-.52-.18-1.28-.26-8.2-.02-13.8,.18-5.6,.2-9.04,.29-11.19,.29Zm24.68-1.12h0s0,0,0,0Zm0,0h0s0,0,0,0Zm0,0h0s0,0,0,0Zm0,0h0s0,0,0,0Zm0,0h0s0,0,0,0Z"/>
          <path class="cls-3" d="M7.72,60.75c-2.81,0-3.42-.16-3.74-.48-.18-.17-.28-.4-.28-.65,0-.91,.53-1.18,5.79-1.78,3.04-.34,7.16-.71,11.13-1.07,1.55-.14,3.18-.28,4.79-.43-.83-.01-1.72-.03-2.66-.05-1.3,.04-2.6,.09-3.85,.13-14.92,.52-17.87,.49-18.56-.17-.18-.18-.28-.41-.28-.66,0-.03,0-.06,0-.09-.05-.11-.07-.23-.07-.35,0-.54,.35-.81,.85-.97-.14-.17-.22-.37-.22-.59,0-.92,1.06-1.07,2.08-1.22,.84-.12,2.03-.24,3.65-.37,.72-.06,1.51-.11,2.34-.17-3.66,.04-4.37-.12-4.73-.47-.18-.17-.28-.4-.28-.65,0-.46,.37-.83,.83-.83,.2,0,.38,.07,.52,.18,1.28,.26,8.2,.02,13.8-.18,12.92-.45,14.36-.37,14.94,.19,.18,.17,.28,.4,.28,.65,0,.92-1.06,1.07-2.08,1.22-.84,.12-2.03,.24-3.65,.37-1.15,.09-2.46,.18-3.85,.27,9.62-.3,11.79-.2,12.37,.36,.18,.18,.28,.41,.28,.66,0,.26-.08,.46-.23,.62,.29,.08,.47,.17,.58,.28,.18,.18,.28,.41,.28,.66,0,.13-.03,.25-.08,.37,0,.02,0,.04,0,.07,0,.91-.53,1.18-5.79,1.78-3.04,.34-7.16,.71-11.13,1.07-1.65,.15-3.4,.3-5.11,.46,1.08-.04,2.16-.07,3.19-.11,12.92-.45,14.36-.37,14.94,.19,.18,.17,.28,.4,.28,.65,0,.46-.37,.83-.83,.83-.2,0-.38-.07-.52-.18-1.28-.26-8.2-.02-13.8,.18-5.6,.2-9.04,.29-11.19,.29Zm24.68-1.12h0s0,0,0,0Zm0,0h0s0,0,0,0Zm0,0h0s0,0,0,0Zm0,0h0s0,0,0,0Zm0,0h0s0,0,0,0ZM5.37,50.71h0s0,0,0,0Zm0,0h0s0,0,0,0Zm0,0h0s0,0,0,0Zm0,0h0s0,0,0,0Zm0,0h0s0,0,0,0Z"/>
          <path class="cls-3" d="M42.39,53.44c-.53,0-.68-.06-.89-.25-.16-.16-.26-.38-.26-.6,0-.58,.11-.64,2.91-2.32,.05-.03,.1-.06,.16-.09-.34,.01-.67,.02-.98,.03-3.91,.14-4.05,.11-4.39-.22-.16-.16-.26-.39-.26-.61,0-.02,0-.04,0-.06-.01-.05-.02-.1-.02-.16,0-.25,.07-.43,.2-.57-.1-.14-.15-.31-.15-.48,0-.68,.16-.75,4.23-2.62,.2-.09,.4-.18,.61-.28-.07,0-.15,0-.22,0-3.84,.13-3.99,.11-4.33-.22-.16-.16-.26-.39-.26-.61,0-.68,.54-.87,1.72-1.29,.48-.17,1.08-.37,1.71-.58-2.72,.09-2.87,.03-3.17-.26-.16-.16-.26-.39-.26-.61,0-.63,.08-.69,4.19-2.99,.41-.23,.87-.49,1.31-.74-.31,.01-.62,.02-.91,.03-3.92,.14-4.06,.11-4.4-.22-.16-.16-.26-.39-.26-.61,0-.2,.04-.36,.13-.49-.04-.1-.06-.2-.06-.3s.02-.2,.05-.3c.07-.43,.41-.62,.95-.78-.01-.01-.02-.02-.04-.03-.16-.16-.26-.38-.26-.61,0-.69,.59-.85,1.28-1.04,.15-.04,.32-.08,.49-.13,0-.02,0-.03,0-.05,0-.46,.37-.83,.83-.83,.07,0,.14,0,.2,.02,.2,0,.68-.01,1.02-.02,1.38-.05,1.56-.05,1.85,.23,.16,.16,.26,.38,.26,.6,0,.12-.02,.23-.05,.32,1.18-.02,1.33,.06,1.57,.28,.16,.16,.26,.38,.26,.61,0,.34-.13,.55-.37,.7,.49,.03,.61,.12,.77,.28,.11,.11,.19,.25,.23,.41,.04,.1,.07,.22,.07,.33,0,.13-.02,.25-.06,.35,.08,.13,.13,.29,.13,.44,0,.63-.08,.69-4.19,2.99-.41,.23-.86,.48-1.31,.74,.29,0,.57-.02,.84-.03,3.85-.13,3.99-.11,4.33,.22,.16,.16,.26,.39,.26,.61,0,.68-.54,.87-1.72,1.29-.48,.17-1.08,.37-1.71,.58,2.71-.09,2.85-.03,3.16,.26,.16,.16,.26,.39,.26,.61,0,.68-.16,.75-4.23,2.62-.2,.09-.4,.18-.61,.28,.09,0,.17,0,.25,0,3.88-.14,4.02-.11,4.36,.22,.16,.16,.26,.39,.26,.61s-.05,.38-.15,.51c.12,.15,.19,.35,.19,.54,0,.05,0,.1-.02,.16,0,.02,0,.04,0,.06,0,.58-.11,.64-2.91,2.32-.06,.03-.12,.07-.18,.11,.1,.04,.18,.1,.27,.18,.16,.16,.26,.38,.26,.6,0,.46-.37,.83-.83,.83-.07,0-.14,0-.2-.02-.19,0-.67,.01-1,.02-.41,.01-.72,.02-.95,.02Zm1.31-.86c0,.2,.07,.36,.16,.49-.1-.14-.16-.31-.16-.49Zm-.97-19.7s.06,.09,.08,.14c0,0,0,0,0,0-.02-.05-.05-.1-.08-.14Z"/>
          <g>
            <path class="cls-3" d="M14.27,23.01c-.46,0-.61-.05-.82-.25-.13-.13-.22-.29-.25-.47-.28-.03-.4-.1-.54-.24-.16-.16-.26-.38-.26-.61,0-.46,.08-.6,1.19-1.18-.95,.02-1.11-.04-1.35-.27-.16-.16-.26-.38-.26-.61,0-.49,.1-.62,1.44-1.31-.66,0-.81-.07-1.01-.27-.16-.16-.26-.38-.26-.61,0-.49,.09-.56,2.29-2.36,.09-.07,.18-.15,.27-.22-1.9,.07-2.07,.06-2.38-.24-.16-.16-.26-.38-.26-.61,0-.45,.04-.5,2.31-2.61,.19-.18,.4-.37,.6-.56-.01,0-.02,0-.03,0-2.17,.08-2.35,.08-2.67-.23-.16-.16-.26-.38-.26-.61,0-.4,.21-.63,.54-.8-.05-.03-.1-.08-.15-.13-.16-.16-.26-.38-.26-.61,0-.5,.07-.59,1.72-1.57-1.06,.03-1.22-.02-1.47-.26-.16-.16-.26-.38-.26-.61,0-.45,.08-.53,2.16-2.5,.15-.14,.31-.3,.48-.45-1.84,.06-2,.06-2.31-.23-.16-.16-.26-.38-.26-.61,0-.48,.15-.65,.98-.99-.01-.06-.02-.11-.02-.17,0-.46,.37-.83,.83-.83,.06,0,.12,0,.17,.02,.14,0,.47,0,.7-.02,1.04-.04,1.22-.04,1.51,.23,.16,.16,.26,.38,.26,.6,0,.11,0,.21-.03,.3,.44,.02,.56,.09,.74,.26,.16,.16,.26,.38,.26,.61,0,.45-.08,.53-2.16,2.5-.15,.14-.32,.3-.48,.46,1.98-.07,2.15-.07,2.46,.23,.16,.16,.26,.38,.26,.61,0,.5-.07,.59-1.72,1.57,1.06-.03,1.21,.02,1.46,.26,.16,.16,.26,.38,.26,.61,0,.35-.16,.57-.42,.73,.12,.04,.2,.11,.29,.19,.16,.16,.26,.38,.26,.61,0,.45-.04,.5-2.31,2.61-.19,.18-.4,.37-.6,.56,2.11-.07,2.28-.08,2.6,.23,.16,.16,.26,.38,.26,.61,0,.49-.09,.56-2.29,2.36-.09,.07-.18,.15-.27,.22,1.76-.06,1.92-.05,2.22,.24,.16,.16,.26,.38,.26,.61,0,.49-.1,.62-1.44,1.31,.96-.02,1.11,.04,1.35,.27,.16,.16,.26,.38,.26,.61,0,.47-.08,.61-1.24,1.2,.29,.03,.41,.1,.56,.25,.16,.16,.26,.38,.26,.61,0,.49-.18,.68-.8,.88-.07,.38-.41,.67-.82,.67-.06,0-.12,0-.18-.02-.15,0-.47,.01-.7,.02-.29,.01-.52,.02-.7,.02Zm.93-.32s.01,.02,.02,.02c0,0-.01-.02-.02-.02,0,0,0,0,0,0ZM14.66,.3s.07,.08,.09,.13c0,0,0,0,0,0-.03-.05-.06-.09-.1-.13Z"/>
            <path class="cls-3" d="M21.98,24.89c-.51,0-.66-.06-.86-.25-.14-.13-.23-.32-.25-.51-.15-.04-.24-.11-.34-.21-.16-.16-.26-.38-.26-.61,0-.46,.08-.6,1.18-1.18-.84,.01-.99-.05-1.21-.27-.16-.16-.26-.38-.26-.61,0-.49,.1-.62,1.44-1.31-.8,0-.95-.05-1.18-.27-.16-.16-.26-.38-.26-.61,0-.49,.09-.56,2.3-2.36,.09-.07,.18-.14,.27-.22-1.78,.06-1.95,.05-2.25-.24-.16-.16-.26-.38-.26-.61,0-.39,.03-.43,1.75-2.43,.13-.16,.28-.33,.42-.5-.71,.02-.86-.03-1.09-.25-.16-.16-.26-.38-.26-.6,0-.46,.37-.83,.83-.83,.07,0,.13,0,.19,.02,.18,0,.61-.01,.91-.02,1.29-.05,1.45-.05,1.74,.23,.16,.16,.26,.38,.26,.6,0,.39-.03,.43-1.75,2.43-.14,.16-.29,.34-.45,.52,.07,0,.13,0,.2,0,2.08-.07,2.25-.08,2.56,.23,.16,.16,.26,.38,.26,.61,0,.49-.09,.56-2.3,2.36-.09,.07-.18,.15-.27,.22,1.89-.07,2.07-.06,2.37,.24,.16,.16,.26,.38,.26,.61,0,.49-.1,.62-1.44,1.31,.81,0,.96,.05,1.18,.27,.16,.16,.26,.38,.26,.61,0,.46-.08,.6-1.21,1.2,.37,.02,.5,.1,.67,.26,.16,.16,.26,.38,.26,.61,0,.43-.14,.63-.6,.8-.04,.42-.4,.75-.83,.75-.07,0-.13,0-.19-.02-.18,0-.62,.01-.92,.02-.38,.01-.67,.02-.88,.02Zm1.3-.39s.02,.03,.03,.05c-.01-.02-.02-.03-.03-.05,0,0,0,0,0,0Zm-.92-13.14c.11,.14,.17,.32,.17,.51,0-.21-.07-.38-.17-.51Z"/>
          </g>
        </g>
        <g>
          <path class="cls-1" d="M25.49,35.09c-.08-.26-.02-.58-.1-.85s-.29-.5-.36-.77,0-.58-.06-.85-.26-.52-.31-.8c-.05-.25,.07-.53,.05-.79s-.17-.52-.16-.77,.19-.5,.24-.75,0-.55,.1-.78c.12-.26,.39-.45,.56-.69s.25-.56,.45-.76,.53-.28,.78-.42c.26-.16,.47-.41,.74-.48,.29-.08,.58,.06,.85,.12s.59,.04,.83,.21c.23,.15,.34,.46,.53,.69,.18,.21,.46,.37,.6,.62,.28,.5,.38,1.1,.57,1.67s.47,1.08,.59,1.67,.05,1.18,.11,1.76,.24,1.17,.26,1.75c0,.23-.13,.47-.13,.7s.15,.47,.14,.7-.17,.46-.19,.69,.09,.48,.06,.71-.23,.41-.29,.63,0,.48-.08,.69-.31,.35-.43,.55-.12,.47-.27,.64c-.09,.1-.28,.1-.38,.19s-.11,.29-.22,.36-.3,.02-.42,.08-.19,.24-.32,.28c-.12,.03-.26-.09-.39-.09-.12,0-.26,.14-.38,.12s-.21-.19-.33-.23-.29,.05-.4,0c-.41-.19-.65-.72-.92-1.27-.22-.44-.54-.9-.68-1.43s-.12-1.1-.21-1.58c-.14-.71-.37-1.27-.43-1.52"/>
          <path class="cls-2" d="M26.29,34.87c-.1-.45-.06-.84-.28-1.27-.06-.13-.16-.24-.19-.38-.05-.27,.02-.55-.06-.82-.08-.31-.31-.56-.28-.88,.03-.24,.05-.46,.01-.71-.02-.11-.04-.21-.07-.32-.02-.06-.04-.13-.06-.19-.02,.08-.02,.08,0,0,.03-.19,.16-.37,.21-.56s0-.44,.06-.62c.04-.12,.13-.18,.22-.29,.16-.18,.31-.37,.42-.58,.06-.12,.11-.29,.21-.38,.11-.11,.34-.15,.48-.23,.18-.09,.33-.22,.49-.34,.19-.14,.14-.11,.37-.05s.44,.1,.67,.12c.04,0,.11,.02,.15,.04-.1-.06-.04-.01,0,.04,.13,.18,.23,.37,.38,.54,.14,.15,.33,.26,.45,.42,.22,.29,.28,.73,.38,1.07,.14,.48,.33,.92,.51,1.39,.32,.86,.22,1.73,.35,2.62,.06,.41,.19,.82,.21,1.23,.01,.24-.09,.46-.11,.71-.02,.28,.11,.52,.11,.78,0,.13-.09,.27-.12,.41-.07,.29-.04,.56,0,.84,.03,.18,.07-.1,.01,.05-.05,.12-.13,.23-.18,.36s-.08,.22-.1,.34c-.03,.14,.02,.39-.04,.51,.07-.16-.3,.32-.29,.3-.08,.12-.32,.47-.27,.62,.04,.11,.19-.23,.21-.16,0,0-.29,.12-.35,.16-.14,.09-.24,.19-.32,.33-.03,.03-.05,.07-.06,.11-.11,.25-.11,.26,0,.05l.37-.21c-.13,.05-.43,.05-.62,.16-.08,.05-.17,.11-.24,.18-.02,.02-.19,.16-.08,.1l.42-.11c.08,0-.06-.04-.07-.04-.13-.06-.3-.05-.43-.03-.22,.02-.4,.13-.6,.21l.42-.11h-.1c.14,.05,.28,.09,.42,.12-.24-.1-.49-.35-.85-.35-.3,.02-.3,.04,.02,.07,0-.02,0-.03-.04-.04-.02-.07-.14-.21-.18-.27-.28-.49-.59-1.03-.81-1.55-.25-.59-.2-1.24-.31-1.86-.1-.52-.29-1.01-.43-1.52-.29-1.03-1.9-.59-1.61,.44,.15,.52,.36,1.03,.44,1.57,.12,.76,.13,1.45,.45,2.17,.26,.57,.56,1.17,.89,1.7,.18,.29,.39,.55,.67,.74,.34,.24,.69,.2,1,.22l-.42-.11c.19,.11,.37,.29,.64,.33s.52-.09,.72-.14h-.44c.29,.05,.54,.17,.84,.09,.13-.04,.25-.11,.35-.19,.05-.04,.1-.08,.15-.13,.1-.09,.07-.1-.07-.02-.33,.05,.14,.03,.21,.01,.17-.04,.34-.13,.46-.25,.09-.09,.17-.19,.23-.3l.08-.2c-.02,.06,0,.05,.04-.03l-.3,.3c-.17,.11,.37-.17,.24-.1,.1-.05,.2-.11,.28-.19,.22-.21,.26-.44,.39-.7,.21-.43,.56-.7,.61-1.23,.02-.18,0-.29,.08-.45,.11-.24,.23-.46,.25-.74,0-.14,0-.26-.02-.39,0,0-.03-.38-.04-.21,.03-.27,.19-.5,.2-.8,0-.24-.14-.47-.14-.7s.13-.47,.13-.7c.01-.56-.18-1.12-.25-1.67-.07-.49-.03-.99-.07-1.48-.06-.58-.21-1.1-.43-1.64-.39-.96-.49-2.2-1.27-2.94-.13-.13-.27-.23-.38-.37-.14-.19-.25-.4-.42-.57-.41-.4-.91-.41-1.43-.53-.56-.13-1.06-.21-1.58,.1-.2,.12-.37,.3-.57,.41-.24,.13-.49,.21-.71,.38-.4,.3-.5,.74-.8,1.1-.4,.48-.68,.81-.71,1.47-.01,.26-.11,.43-.19,.67-.1,.32-.1,.63-.03,.96,.06,.27,.1,.41,.07,.69s-.01,.57,.09,.84c.08,.21,.21,.4,.24,.63,.03,.29,0,.56,.08,.85,.07,.25,.27,.46,.34,.7,.08,.27,.04,.58,.1,.86,.23,1.05,1.84,.6,1.61-.44h0Z"/>
        </g>
        <g>
          <path class="cls-1" d="M15.27,26.7c-.41,.43-.9,.81-1.18,1.33s-.32,1.14-.45,1.72-.36,1.16-.31,1.75,.35,1.12,.59,1.67c.16,.38,.21,.82,.43,1.17s.61,.58,.85,.92,.32,.78,.53,1.13,.57,.64,.71,1.03c.09,.24-.02,.53,.03,.77s.27,.46,.3,.71-.14,.51-.13,.76,.19,.5,.19,.75c0,.21-.19,.42-.2,.63s.18,.42,.2,.63-.12,.46-.05,.66,.32,.29,.47,.46c.07,.08,.02,.28,.1,.35s.27-.02,.36,.03,.11,.26,.2,.3,.26-.09,.36-.06c.45,.15,.88,.39,1.34,.39s.9-.25,1.34-.38,.94-.16,1.34-.4c.4-.24,.65-.67,.97-1,.25-.26,.62-.42,.82-.71s.23-.7,.39-1.02,.46-.58,.58-.92,.03-.74,.11-1.09c.15-.71,.42-1.44,.44-2.2s-.19-1.48-.28-2.23-.06-1.52-.27-2.23-.65-1.37-.98-2.02c-.18-.36-.24-.81-.47-1.14s-.63-.54-.91-.83-.47-.7-.79-.95-.77-.3-1.14-.48c-.44-.21-.86-.54-1.35-.63-.49-.09-.99,.06-1.49,.09s-1.02-.03-1.48,.14-.8,.58-1.18,.9"/>
          <path class="cls-2" d="M14.68,26.11c-.46,.47-1,.9-1.31,1.49s-.38,1.21-.52,1.85c-.15,.7-.42,1.38-.35,2.11s.44,1.33,.68,2.02,.38,1.22,.9,1.72c.2,.2,.4,.36,.53,.62,.14,.29,.23,.61,.39,.89,.15,.25,.36,.45,.52,.69,.04,.06,.12,.31,.11,.17,.02,.17-.02,.34,0,.52,.02,.2,.07,.36,.15,.54,.02,.05,.16,.3,.15,.23-.02-.1-.03,.07-.03,.09-.02,.06-.04,.13-.05,.19-.05,.24-.06,.45-.01,.69,.01,.06,.03,.12,.04,.19,0-.01,.13,.34,.11,.2-.01-.07,.01-.06,.02-.04,.01,.1-.12,.26-.15,.36-.12,.42,0,.73,.14,1.12,0,.02,.03,.08,0-.05-.03-.15-.03,.12-.04,.17-.04,.22-.05,.44,.01,.65,.11,.38,.42,.57,.68,.83l-.21-.37c.02-.08,.03-.05,.03,.07,0,.07,.02,.14,.03,.21,.04,.15,.15,.33,.26,.44,.12,.12,.28,.2,.45,.24,.05,.01,.38,.02,.29,0l-.37-.21c-.13-.13,0,.06,.02,.09,.08,.13,.22,.26,.35,.34,.15,.09,.33,.12,.5,.12l.22-.03c.14-.04,.13-.04-.03-.02,.61,.19,1.13,.44,1.79,.33,.56-.09,1.06-.35,1.61-.48,.6-.13,1.14-.32,1.59-.75,.35-.33,.6-.72,.99-1.01,.51-.38,.77-.78,.96-1.39,.15-.48,.52-.81,.69-1.27,.2-.52,.12-1.09,.25-1.63,.15-.61,.32-1.21,.36-1.84s-.09-1.32-.2-1.96c-.21-1.22-.13-2.44-.65-3.6-.23-.51-.56-.97-.79-1.48s-.31-.99-.68-1.41c-.28-.32-.67-.52-.94-.86-.42-.52-.73-.96-1.38-1.22-.24-.1-.5-.16-.74-.28s-.47-.27-.72-.39c-.74-.36-1.4-.32-2.19-.22-.6,.07-1.21-.01-1.8,.15-.68,.19-1.16,.71-1.68,1.16-.34,.3-.3,.88,0,1.18,.34,.34,.84,.3,1.18,0,.29-.25,.57-.61,.94-.73,.42-.14,.92-.04,1.36-.09s.89-.19,1.3-.03c.46,.18,.85,.48,1.32,.65,.32,.12,.59,.17,.81,.44,.29,.36,.53,.71,.9,1,.32,.26,.49,.43,.62,.82,.15,.45,.36,.86,.59,1.27,.22,.39,.44,.78,.57,1.21,.14,.48,.15,.98,.19,1.48,.08,1.03,.45,2.1,.3,3.13-.07,.47-.22,.92-.33,1.38-.05,.23-.09,.47-.11,.71-.01,.21,.03,.42-.06,.61s-.24,.33-.35,.5c-.13,.2-.22,.41-.3,.63-.05,.15-.07,.34-.15,.48-.07,.13-.2,.2-.31,.29-.42,.33-.71,.71-1.08,1.08-.34,.34-.87,.33-1.31,.46-.42,.13-.86,.42-1.3,.33-.28-.06-.53-.2-.8-.29-.12-.04-.23-.07-.36-.08-.1,0-.43,.06-.36,.06l.59,.24c.11,.09,.01-.03-.03-.09-.07-.11-.16-.21-.26-.28-.11-.08-.23-.13-.37-.17-.04,0-.39-.05-.28-.01l.5,.38s.08,.31,.03,.04c-.01-.09-.02-.12-.05-.19-.06-.2-.18-.35-.34-.48-.14-.12-.26-.31-.17-.02s.03,.15,.07,.05c.04-.09,.04-.24,.05-.33,0-.16-.02-.33-.07-.49-.02-.08-.06-.18-.1-.25-.04-.07-.05-.21-.04,0,0,.24,.06-.03,.09-.11,.08-.19,.13-.38,.12-.59,0-.16-.04-.32-.09-.47-.02-.06-.05-.12-.07-.19,0-.03-.02-.18-.03-.09-.01,.11,.05-.1,.05-.09,.03-.08,.04-.17,.06-.25,.04-.21,.04-.42-.01-.63-.04-.15-.11-.3-.18-.44-.03-.06-.07-.11-.09-.17,0,.02,.02,.15,0,0-.03-.39,.01-.69-.16-1.06-.23-.49-.65-.84-.86-1.35-.12-.3-.24-.59-.44-.86s-.45-.46-.67-.7c-.15-.17-.21-.34-.28-.56-.1-.35-.23-.68-.38-1.01-.25-.55-.43-1.02-.29-1.63,.16-.69,.27-1.41,.47-2.08,.18-.63,.73-1.01,1.17-1.46,.75-.77-.43-1.95-1.18-1.18h0Z"/>
        </g>
        <path class="cls-4" d="M21.09,34.72s.03,.06,.04,.09l-.08-.2c.07,.18,.13,.37,.19,.56s.12,.37,.15,.57l-.03-.22c.02,.19,.01,.37,.01,.56s0,.37-.01,.56l.03-.22v.05c.02-.07,.05-.13,.08-.2,.14-.17,.13-.16-.03,.05-.03,.04-.05,.08-.06,.13-.05,.13-.07,.24-.08,.39l.03-.22v.03c.12-.17,.25-.33,.37-.5l-.02,.02,.2-.08c-.1,.03-.19,.07-.29,.12l.2-.08h-.03c.07,0,.15,0,.22-.02h-.03c.27,.2,.54,.4,.8,.61,0-.01,0-.03,0-.04-.03-.17-.17-.33-.3-.43-.15-.11-.31-.17-.5-.18-.01,0-.03,0-.04,0,.27,.35,.54,.7,.8,1.05,0-.01,0-.03,0-.04,.04-.21,.04-.45-.08-.64s-.28-.32-.5-.38c-.01,0-.03,0-.04-.01l.5,.38-.02-.04,.08,.2c-.09-.23-.14-.52-.18-.77l.03,.22c-.02-.16,0-.33-.01-.49-.02-.22-.07-.44-.12-.65l.03,.22c0-.12,0-.23-.04-.36-.03-.1-.08-.2-.13-.29l.08,.2v-.03c0,.07,0,.15,.02,.22,0-.09,0-.16-.01-.25s-.04-.16-.05-.24v.4c-.02,.07-.05,.13-.07,.2,.04-.1,.09-.2,.12-.3s.03-.2,.04-.31l-.03,.22v-.03c-.06,.12-.13,.25-.2,.37,.05-.06,.02-.04-.09,.06,.06-.05,.12-.09,.18-.14,.07-.07,.14-.08-.06,.03l-.42,.11h.05c-.07-.01-.15-.02-.22-.03,.14,.02,.27,.05,.41,.05l-.22-.03h.04c-.07-.02-.13-.05-.2-.07-.28-.19-.03,0,.01,.03,.04,.03,.07,.06,.11,.09,.12,.08,.05,0-.2-.2l-.08-.2c.03,.14,.09,.27,.16,.39l-.08-.2v.03c0-.07,0-.15-.02-.22,0,.13,0,.22,.03,.36,.03,.1,.08,.2,.12,.3l-.08-.2v.03c0-.07-.01-.15-.02-.22,.01,.14,0,.27,.03,.41s.06,.27,.08,.41l-.03-.22c.01,.14,0,.27,.03,.41s.06,.27,.08,.41l-.03-.22v.03c0-.07,.02-.15,.03-.22-.08,.29-.02,.51,.1,.78l-.08-.2v.03c0-.15,0-.3,0-.44v.03c.02-.07,.05-.13,.07-.2-.09,.17-.15,.36-.15,.55l.03-.22v.03c.06-.12,.13-.25,.21-.37,0,0,.18-.14,.09-.07-.07,.05-.15,.1-.21,.16-.04,.05-.12,.14-.15,.2-.04,.06,0,.03,.11-.1,.13-.11,.16-.14,.09-.1-.33,.16-.47,.54-.49,.88-.02,.44,.4,.85,.83,.83,.47-.02,.82-.37,.83-.83,0-.03,0-.06,0-.09l-.03,.22,.02-.04-.21,.37s-.18,.13-.09,.08c.07-.04,.15-.11,.21-.16,.04-.05,.12-.14,.15-.19,.04-.06,0-.03-.11,.1-.13,.11-.16,.14-.09,.09,.13-.07,.27-.21,.35-.34,.09-.16,.11-.34,.12-.52l-.11,.42c.06-.14,.12-.26,.14-.4,.03-.23-.03-.4-.12-.6l.08,.2v-.03c0,.07,.01,.15,.02,.22v-.03c0,.07-.02,.15-.03,.22,.08-.29,0-.53-.06-.81l.03,.22c-.01-.14,0-.27-.03-.41s-.06-.27-.08-.41l.03,.22c0-.09,0-.19-.01-.28-.02-.2-.07-.36-.15-.54l.08,.2v-.03c0,.07,.01,.15,.02,.22,0-.13,0-.24-.04-.38-.04-.11-.09-.2-.15-.3l.08,.2c-.03-.11-.06-.23-.12-.33s-.14-.19-.24-.26c.04,.03-.14-.11-.14-.1,.01-.02,.16,.15,.09,.06-.04-.06-.14-.13-.21-.17-.17-.11-.37-.13-.57-.13l.22,.03c-.2-.04-.38-.06-.58-.01-.15,.03-.37,.16-.45,.29-.03,.03-.01,.02,.05-.03,.11-.09,.08-.06-.11,.09-.04,.04-.07,.08-.11,.13-.14,.18-.18,.38-.2,.6l.03-.22s0,.05-.02,.08l.08-.2c-.08,.17-.14,.31-.14,.51,0,.14,.03,.23,.07,.35l-.03-.22c0,.24,.03,.44,.16,.65l-.08-.2v.03c0-.07,0-.15-.02-.22,.01,.15,.02,.3,.06,.45,.02,.1,.05,.19,.06,.29l-.03-.22c.02,.14,0,.28,0,.42,0,.21,.04,.41,.09,.61,.03,.14,.05,.28,.09,.41,.04,.11,.08,.23,.14,.34,.12,.2,.32,.33,.54,.39l-.58-1.03s0,.03,0,.04c-.04,.27-.02,.5,.15,.73s.38,.31,.65,.33c.01,0,.03,0,.04,0l-.8-.61s0,.03,0,.04c.04,.18,.16,.32,.3,.43,.16,.12,.31,.16,.5,.18,.17,.02,.36-.06,.51-.14l-.2,.08c.16-.05,.33-.12,.45-.25,.17-.19,.24-.4,.26-.65l-.03,.22v-.03c-.02,.07-.05,.13-.08,.2-.14,.17-.12,.16,.04-.05,.04-.07,.07-.15,.1-.23,.03-.1,.03-.22,.04-.32,.01-.12,.01-.24,0-.36,0-.23,.01-.46-.01-.69-.03-.3-.1-.56-.19-.84s-.18-.56-.31-.82c-.19-.39-.78-.53-1.14-.3-.4,.26-.5,.72-.3,1.14h0Z"/>
        <path class="cls-4" d="M28.34,34.28c.02,.07,.03,.14,.04,.22l-.03-.22c.03,.24,.07,.48,.11,.72l-.03-.22c.02,.15,0,.3,0,.45s0,.3-.01,.45c-.02,.2,.11,.45,.24,.59,.14,.14,.38,.25,.59,.24s.44-.08,.59-.24l.13-.17c.08-.13,.11-.27,.11-.42,.02-.22,.01-.44,.02-.66,0-.28-.06-.56-.1-.84l.03,.22c-.02-.19-.04-.38-.08-.56-.05-.2-.21-.4-.38-.5s-.44-.15-.64-.08c-.44,.14-.69,.57-.58,1.03h0Z"/>
        <g>
          <path class="cls-1" d="M24.55,46.46c-.33,.31-.66,.62-.87,1.03s-.27,.85-.38,1.3-.25,.88-.29,1.32,.05,.93,.07,1.35c0,.12-.07,.25-.06,.37s.11,.23,.14,.35-.02,.26,.02,.37,.17,.18,.24,.29c.09,.14,.14,.32,.27,.42s.31,.12,.47,.18,.29,.19,.45,.22,.33-.05,.5-.06,.34,.04,.5,0,.28-.19,.43-.26,.33-.08,.47-.18,.21-.26,.34-.38,.3-.17,.41-.29,.15-.3,.25-.44,.27-.21,.36-.35,.12-.32,.21-.46c.12-.18,.31-.31,.42-.49s.15-.41,.26-.59,.28-.33,.37-.52,.1-.42,.18-.62c.07-.18,.21-.33,.27-.52s.01-.39,.05-.58,.14-.37,.16-.56-.07-.38-.08-.57c0-.12,.06-.26,.04-.37s-.15-.21-.2-.32-.05-.26-.14-.35c-.08-.08-.23-.08-.35-.14-.11-.05-.19-.17-.3-.2s-.25,.02-.36,0-.21-.13-.33-.15-.25,.04-.36,0c-.09-.02-.16-.13-.25-.15s-.2,.04-.29,.03-.17-.11-.26-.11-.18,.09-.27,.1c-.1,.01-.22-.04-.32,0s-.16,.15-.25,.2-.22,.02-.31,.08-.13,.18-.21,.24c-.09,.06-.23,.05-.31,.11s-.12,.19-.21,.26-.22,.07-.3,.14-.09,.21-.15,.29"/>
          <path d="M23.96,45.87c-.66,.61-1.13,1.27-1.34,2.16-.21,.89-.5,1.77-.43,2.7,.01,.2,.05,.4,.05,.59,0,.21-.06,.41-.04,.62,.02,.16,.1,.27,.14,.43,0-.04-.03-.23-.01,.06s.11,.56,.31,.79c.23,.26,.35,.6,.68,.79,.17,.1,.35,.13,.53,.21,.26,.12,.46,.26,.76,.28,.2,.01,.4-.06,.6-.07s.36,.04,.57-.01c.24-.06,.37-.18,.58-.29,.18-.09,.4-.13,.58-.24,.21-.13,.3-.32,.47-.48-.1,.09,.06-.03,.07-.04,.1-.06,.19-.12,.28-.2,.18-.16,.26-.33,.38-.52,.11-.16,.27-.27,.39-.43s.15-.38,.27-.54c.1-.14,.24-.25,.34-.39,.13-.19,.2-.39,.29-.6,.08-.18,.2-.3,.31-.46,.21-.31,.23-.66,.39-.99,.1-.19,.2-.37,.25-.58,.06-.24,.03-.48,.1-.72,.08-.28,.14-.52,.1-.83-.03-.25-.02-.38-.02-.63,0-.27-.09-.52-.27-.73l-.07-.08c.07,.15,.09,.17,.06,.08,.03-.07-.13-.33-.15-.37-.15-.25-.37-.39-.64-.48-.03-.01-.21-.08-.1-.03,.1,.05-.27-.19-.33-.21-.12-.05-.25-.07-.38-.08-.06,0-.12,0-.18,0,.11,.02,.11,0-.02-.04-.25-.15-.52-.09-.8-.11l.42,.11c-.18-.1-.46-.27-.76-.26-.51,.02,.23,.15-.05,.02-.17-.08-.34-.1-.52-.08-.05,0-.39,.06-.4,.12,.28,0,.33-.02,.14-.04-.07-.02-.14-.02-.21,0-.37,.02-.57,.23-.84,.44l.37-.21c-.18,.05-.34,.06-.51,.16s-.25,.24-.38,.37l.37-.21c-.17,.07-.35,.1-.51,.19-.03,.02-.53,.51-.29,.32s-.36,.19-.38,.21c-.14,.14-.19,.3-.28,.46-.5,.95,.93,1.79,1.44,.84,.05-.09,.11-.22,.15-.29l-.3,.3c.13-.08,.26-.12,.38-.21s.18-.21,.29-.32l-.37,.21c.17-.07,.35-.1,.51-.19s.26-.25,.38-.37l-.37,.21c.14-.05,.27-.06,.41-.12s.24-.17,.35-.24l-.42,.11s.32,.01,.43,0c.08-.01,.42-.12,.38-.11h-.44c-.09-.03-.03,0,.18,.08,.06,.03,.13,.05,.2,.05,.07,.01,.47-.02,.4-.02l-.42-.11c-.03-.09,.03-.06,.16,.11,.09,.05,.18,.09,.28,.13,.16,.04,.32,0,.46,.02-.22-.04,.19,.11,.23,.12,.2,.05,.39,.01,.59,.03l-.42-.11c.14,.07,.25,.18,.4,.25,.04,.02,.31,.14,.25,.1l-.3-.3c-.04-.05,.04,.11,.06,.15,0,.02,.24,.48,.26,.45-.05,.06-.01-.58-.1-.21-.02,.07-.03,.17-.03,.24,0,.16,.09,.37,.08,.5,0,.08-.08,.23-.11,.34-.04,.17-.04,.34-.06,.51-.04,.26-.2,.46-.29,.72-.07,.21-.08,.38-.21,.55-.09,.13-.2,.24-.27,.38-.08,.16-.11,.35-.2,.5-.12,.19-.32,.33-.44,.52-.08,.13-.1,.31-.19,.43,.07-.1-.17,.13-.21,.17-.11,.11-.19,.24-.27,.38-.03,.05-.05,.13-.09,.17,.03-.03,.06-.08-.03-.01-.13,.09-.26,.17-.37,.28-.04,.04-.27,.29-.16,.21-.14,.09-.34,.11-.49,.2-.06,.03-.1,.07-.16,.11-.03,.02-.16,.06-.08,.04,.05,0-.27-.03-.34-.02-.07,0-.16,.02-.23,.03-.24,.06-.01-.02,.04,.03-.09-.1-.3-.16-.42-.21-.05-.02-.12-.06-.18-.06-.17-.01,.05,0,.06,.06-.04-.14-.16-.29-.25-.39-.03-.03-.06-.08-.09-.11-.07-.05,.05,.23,.08,.1,.04-.14-.06-.37-.12-.5-.14-.29,.01,.08,0,.06-.01,0,.04-.25,.04-.28,.02-.31-.05-.64-.06-.95-.03-.7,.21-1.36,.36-2.03s.44-1.04,.93-1.49c.79-.73-.39-1.91-1.18-1.18h0Z"/>
        </g>
      </g>
      <g>
        <path class="cls-1" d="M5.93,64.41c.83,0,1.41,.32,1.75,.96l-.16,.79h-.32c-.1,0-.52-.11-1.27-.32h-.32c-1.91,.26-2.87,1.01-2.87,2.23v.16c.32,.64,1.17,.96,2.55,.96,1.38-.06,2.07-.16,2.07-.32,.42,.16,.63,.32,.63,.48v.64c0,.32-.9,.53-2.71,.63-2.44,0-3.66-.79-3.66-2.38v-.32c0-1.47,.95-2.59,2.86-3.34l1.43-.16Z"/>
        <path class="cls-1" d="M11.47,64.73h.32c.96,0,1.86,1.11,2.7,3.34,.32,0,.48,.11,.48,.32v.8c0,.21-.11,.32-.32,.32h-.64l-.8-.79c-.64,.63-1.33,.95-2.07,.95h-.63c-1.13,0-1.77-.74-1.91-2.22,0-1.5,.95-2.4,2.86-2.71Zm-1.59,2.55v.48c.11,.32,.43,.48,.96,.48h.48c.85,0,1.27-.42,1.27-1.27-.21-.48-.42-.75-.64-.8h-.32c-.65,0-1.23,.37-1.75,1.11Z"/>
        <path class="cls-1" d="M19.71,63.14c1.04,0,1.62,.69,1.75,2.07-.25,.74-.46,1.11-.63,1.11h-.48v-.63c0-.55-.16-.87-.48-.96h-.48c-.64,.32-.96,.8-.96,1.43v.32c1.8,0,2.71,.37,2.71,1.11-.16,.43-.32,.64-.48,.64l-2.23-.16c.32,.53,.48,.9,.48,1.12,0,1.24-.21,1.98-.63,2.22-.64-.23-.96-.55-.96-.95l.16-.32c0-1.48-.32-2.22-.96-2.22s-.96-.11-.96-.32v-.63c0-.24,.53-.46,1.59-.64,0-1.53,.85-2.59,2.55-3.18Z"/>
        <path class="cls-1" d="M25.73,65.21h.32c1.27,.29,1.91,.88,1.91,1.75v.16c0,.98-.69,1.56-2.07,1.75h-.79c-.12,0-.71-.11-1.75-.32v.32c.11,.32,.43,.48,.96,.48h.79l1.91-.16,.32,.47v.48c0,.32-.8,.58-2.39,.79-1.72,0-2.67-.64-2.86-1.91v-.48c0-1.8,1.22-2.92,3.66-3.34Zm-1.11,1.91v.16l1.11,.16c.55,0,.87-.16,.96-.48v-.16l-.79-.16c-.78,0-1.21,.16-1.27,.47Z"/>
        <path class="cls-1" d="M32.6,65.21c.5,0,.82,.69,.96,2.07h.32c1.91,0,2.86-.21,2.86-.63,0-.74,.16-1.12,.48-1.12h.16c.22,.05,.43,.31,.63,.79l-.16,.79,.16,1.12c-.17,.21-.33,1.16-.48,2.86l-.32,.16h-.63l-.16-.79v-1.43c0-.21-.11-.32-.32-.32h-2.07l-.48,.32,.16,.32v.79l-.16,.79h-.64c-.38,0-.64-1.7-.79-5.09l.48-.63Z"/>
        <path class="cls-1" d="M40.53,66c.53,.03,.79,.13,.79,.32l.32-.16h.16c1.16,0,1.75,.48,1.75,1.43v.79c-.27,1.49-1.12,2.23-2.55,2.23h-.47c-1.27-.24-1.91-.77-1.91-1.59v-.79c.38-1.49,1.02-2.23,1.91-2.23Zm-.96,2.71c.45,.42,.87,.63,1.27,.63h.32c.58,0,1-.21,1.27-.63v-.64c0-.29-.53-.5-1.59-.63l-.16-.32c-.74,.35-1.11,.88-1.11,1.59Z"/>
        <path class="cls-1" d="M44.95,63.94h.48c.64,.07,.96,.23,.96,.48v.79c-.37,.64-.85,.96-1.43,.96h-.32c-.32-.11-.48-.43-.48-.96,0-.58,.26-1,.79-1.27Zm0,2.86h.32c.32,.07,.48,.49,.48,1.27v2.71c0,.21-.11,.32-.32,.32h-.32c-.15,0-.31-.16-.48-.48v-.96c0-.58-.05-1.32-.16-2.22,.16-.43,.32-.64,.48-.64Z"/>
      </g>
    </g>
  </g>
</svg>