<svg width="26" height="43" viewBox="0 0 26 43" fill="none" xmlns="http://www.w3.org/2000/svg">
<path d="M24.8675 14.5625C24.3775 15.0525 23.7375 15.3025 23.0975 15.3025C22.4575 15.3025 21.8175 15.0525 21.3275 14.5625L15.2975 8.5325V39.8725C15.2975 41.2625 14.1775 42.3725 12.7975 42.3725C11.4175 42.3725 10.2975 41.2625 10.2975 39.8725V8.5325L4.2675 14.5625C3.7775 15.0525 3.1375 15.3025 2.4975 15.3025C1.8575 15.3025 1.2175 15.0525 0.7275 14.5625C-0.2425 13.5925 -0.2425 12.0125 0.7275 11.0325L11.0275 0.7325C11.2775 0.4925 11.5575 0.3025 11.8575 0.1825C11.9975 0.1325 12.1475 0.0825 12.2975 0.0525C12.6275 -0.0175 12.9675 -0.0175 13.2975 0.0525C13.4475 0.0825 13.5975 0.1325 13.7375 0.1825C14.0375 0.3025 14.3175 0.4925 14.5675 0.7325L24.8675 11.0325C25.8375 12.0125 25.8375 13.5925 24.8675 14.5625Z" fill="white"/>
</svg>
