<?xml version="1.0" encoding="UTF-8"?>
<svg id="Layer_2" data-name="Layer 2" xmlns="http://www.w3.org/2000/svg" viewBox="0 0 26 26">
  <defs>
    <style>
      .cls-1 {
        fill: #fff;
      }
    </style>
  </defs>
  <g id="gnb_2depth">
    <path class="cls-1" d="M3.71,0C1.67,0,0,1.67,0,3.71V22.29c0,2.05,1.67,3.71,3.71,3.71H22.29c2.05,0,3.71-1.67,3.71-3.71V3.71c0-2.05-1.67-3.71-3.71-3.71H3.71ZM20.96,4.88l-6.02,6.88,7.09,9.37h-5.55l-4.34-5.68-4.97,5.68h-2.76l6.44-7.36L4.05,4.88h5.69l3.93,5.19,4.54-5.19h2.76Zm-2.19,14.6L8.9,6.44h-1.64l9.97,13.04h1.53Z"/>
  </g>
</svg>