<?xml version="1.0" encoding="UTF-8"?>
<svg id="Layer_2" data-name="Layer 2" xmlns="http://www.w3.org/2000/svg" viewBox="0 0 33.07 23.25">
  <defs>
    <style>
      .cls-1 {
        fill: #fff;
      }
    </style>
  </defs>
  <g id="gnb_2depth">
    <path class="cls-1" d="M32.38,3.64c-.38-1.43-1.5-2.56-2.92-2.94-2.58-.7-12.92-.7-12.92-.7,0,0-10.34,0-12.92,.7-1.42,.38-2.54,1.51-2.92,2.94-.69,2.6-.69,8.01-.69,8.01,0,0,0,5.41,.69,8.01,.38,1.43,1.5,2.51,2.92,2.89,2.58,.7,12.92,.7,12.92,.7,0,0,10.34,0,12.92-.7,1.42-.38,2.54-1.47,2.92-2.89,.69-2.6,.69-8.01,.69-8.01,0,0,0-5.41-.69-8.01h0ZM13.16,16.56V6.73l8.64,4.92-8.64,4.92h0Z"/>
  </g>
</svg>